<svg width="23" height="19" viewBox="0 0 23 19" fill="none" xmlns="http://www.w3.org/2000/svg">
<g clip-path="url(#clip0_57_1220)">
<path d="M22.0923 2.88807C21.2993 3.23593 20.4543 3.4665 19.5734 3.57845C20.4796 3.03734 21.1714 2.18702 21.4966 1.16211C20.6516 1.66591 19.7186 2.02176 18.7244 2.22034C17.922 1.36603 16.7785 0.836914 15.531 0.836914C13.1107 0.836914 11.1622 2.80144 11.1622 5.20978C11.1622 5.5563 11.1915 5.8895 11.2634 6.2067C7.62894 6.02944 4.41293 4.28749 2.25248 1.63392C1.87531 2.28832 1.65406 3.03734 1.65406 3.84368C1.65406 5.35772 2.43374 6.69983 3.59593 7.47685C2.89355 7.46352 2.2045 7.2596 1.62074 6.9384C1.62074 6.95173 1.62074 6.96906 1.62074 6.98638C1.62074 9.11084 3.13612 10.8754 5.1233 11.2819C4.76745 11.3792 4.37961 11.4259 3.97711 11.4259C3.69722 11.4259 3.41467 11.4099 3.14945 11.3513C3.71588 13.0825 5.32322 14.3553 7.23443 14.3967C5.74705 15.5602 3.85849 16.2612 1.814 16.2612C1.45548 16.2612 1.11162 16.2452 0.767761 16.2013C2.7043 17.4501 4.99935 18.1631 7.47433 18.1631C15.519 18.1631 19.9172 11.4992 19.9172 5.7229C19.9172 5.52965 19.9106 5.34306 19.9012 5.1578C20.7689 4.54206 21.4979 3.77304 22.0923 2.88807Z" fill="#9CA3AF"/>
</g>
<defs>
<clipPath id="clip0_57_1220">
<rect width="21.3246" height="17.3262" fill="white" transform="translate(0.767761 0.836914)"/>
</clipPath>
</defs>
</svg>
