<svg width="20" height="19" viewBox="0 0 20 19" fill="none" xmlns="http://www.w3.org/2000/svg">
<g clip-path="url(#clip0_57_1216)">
<path d="M0 5.78238C0.0662736 5.3315 0.116768 4.87804 0.201006 4.43044C0.678515 1.89516 2.5417 0.170208 5.20575 0.0818085C8.41335 -0.024364 11.6307 -0.0299766 14.8378 0.0813408C17.7373 0.181901 19.8372 2.25016 19.9277 5.04432C20.0241 8.0113 20.0241 10.9855 19.9277 13.9525C19.8372 16.7467 17.738 18.8147 14.838 18.9155C11.6309 19.027 8.41286 19.0298 5.206 18.9139C2.30598 18.8088 0.301266 16.7359 0.1073 13.9375C0.0905497 13.6955 0.0366568 13.4556 0 13.2147C0 10.7372 0 8.25966 0 5.78238ZM10.0027 17.2595C11.4704 17.2595 12.9396 17.3019 14.4054 17.2497C16.7036 17.1676 18.1172 15.8463 18.1709 13.6345C18.2374 10.8784 18.2374 8.11864 18.1709 5.36237C18.1172 3.15099 16.7026 1.79881 14.4054 1.7518C11.4896 1.6924 8.57066 1.69287 5.65486 1.7518C3.3751 1.79787 1.95738 3.12269 1.89547 5.30975C1.81682 8.10063 1.81682 10.8964 1.89547 13.6873C1.95738 15.8741 3.3751 17.1683 5.6551 17.2497C7.10244 17.3016 8.55342 17.2595 10.0027 17.2595Z" fill="#9CA3AF"/>
<path d="M9.99947 4.5918C7.1849 4.5918 4.90295 6.78985 4.90295 9.50122C4.90295 12.2128 7.1849 14.4109 9.99947 14.4109C12.8143 14.4109 15.096 12.2128 15.096 9.50122C15.096 6.78985 12.8143 4.5918 9.99947 4.5918ZM9.99947 12.7205C8.15376 12.7205 6.65763 11.2793 6.65763 9.50122C6.65763 7.72318 8.15376 6.2819 9.99947 6.2819C11.8452 6.2819 13.3413 7.72318 13.3413 9.50122C13.3413 11.2793 11.8452 12.7205 9.99947 12.7205Z" fill="#9CA3AF"/>
<path d="M16.6071 4.36735C16.6071 5.01234 16.0643 5.53525 15.3948 5.53525C14.7252 5.53525 14.1822 5.01234 14.1822 4.36735C14.1822 3.72213 14.7252 3.19922 15.3948 3.19922C16.0643 3.19922 16.6071 3.72213 16.6071 4.36735Z" fill="#9CA3AF"/>
</g>
<defs>
<clipPath id="clip0_57_1216">
<rect width="20" height="19" fill="white"/>
</clipPath>
</defs>
</svg>
