<svg width="21" height="19" viewBox="0 0 21 19" fill="none" xmlns="http://www.w3.org/2000/svg">
<g clip-path="url(#clip0_57_1219)">
<path d="M19.4479 0.904551L0.638594 8.23433C0.0293581 8.47177 0.0662666 9.34603 0.693401 9.53119L5.47304 10.9426L7.25681 16.6027C7.44314 17.1939 8.19236 17.3731 8.62606 16.9303L11.0973 14.407L15.946 17.9661C16.5393 18.4017 17.3844 18.0781 17.5351 17.3576L20.7464 2.00421C20.9037 1.25216 20.1638 0.625578 19.4479 0.904551ZM17.0897 4.31185L8.35289 12.0378C8.2658 12.1148 8.21038 12.2214 8.19742 12.337L7.86104 15.3272C7.85006 15.4247 7.71359 15.4376 7.68446 15.3439L6.30052 10.8845C6.23713 10.6803 6.31978 10.4591 6.50142 10.3464L16.8187 3.94758C17.0559 3.80032 17.2989 4.12694 17.0897 4.31185Z" fill="#9CA3AF"/>
</g>
<defs>
<clipPath id="clip0_57_1219">
<rect width="20.566" height="17.3262" fill="white" transform="translate(0.201721 0.836914)"/>
</clipPath>
</defs>
</svg>
