<svg width="21" height="17" viewBox="0 0 21 17" fill="none" xmlns="http://www.w3.org/2000/svg">
<path d="M20.8651 4.03282C20.8651 2.15787 19.5073 0.649579 17.8295 0.649579C15.557 0.541665 13.2393 0.5 10.8708 0.5H10.1324C7.76959 0.5 5.44781 0.541665 3.17526 0.649996C1.50161 0.649996 0.143822 2.16662 0.143822 4.04157C0.0412703 5.52445 -0.0022118 7.00774 0.000249451 8.49103C-0.00385263 9.97433 0.0426376 11.459 0.13972 12.9451C0.13972 14.82 1.49751 16.3408 3.17116 16.3408C5.55857 16.4533 8.00751 16.5033 10.4975 16.4991C12.9915 16.5075 15.4336 16.4547 17.8238 16.3408C19.5015 16.3408 20.8593 14.82 20.8593 12.9451C20.9578 11.4576 21.0029 9.97433 20.9988 8.48687C21.0081 7.00357 20.9635 5.51889 20.8651 4.03282ZM8.49156 12.5784V4.39114L14.4396 8.4827L8.49156 12.5784Z" fill="#9CA3AF"/>
</svg>
