<svg width="641" height="37" viewBox="0 0 641 37" fill="none" xmlns="http://www.w3.org/2000/svg">
<g opacity="0.5">
<circle cx="1.5" cy="35.5" r="1.5" fill="white"/>
<circle cx="331.5" cy="35.5" r="1.5" fill="white"/>
<circle cx="67.5" cy="35.5" r="1.5" fill="white"/>
<circle cx="397.5" cy="35.5" r="1.5" fill="white"/>
<circle cx="133.5" cy="35.5" r="1.5" fill="white"/>
<circle cx="463.5" cy="35.5" r="1.5" fill="white"/>
<circle cx="199.5" cy="35.5" r="1.5" fill="white"/>
<circle cx="529.5" cy="35.5" r="1.5" fill="white"/>
<circle cx="265.5" cy="35.5" r="1.5" fill="white"/>
<circle cx="595.5" cy="35.5" r="1.5" fill="white"/>
<circle cx="23.5" cy="35.5" r="1.5" fill="white"/>
<circle cx="353.5" cy="35.5" r="1.5" fill="white"/>
<circle cx="89.5" cy="35.5" r="1.5" fill="white"/>
<circle cx="419.5" cy="35.5" r="1.5" fill="white"/>
<circle cx="155.5" cy="35.5" r="1.5" fill="white"/>
<circle cx="485.5" cy="35.5" r="1.5" fill="white"/>
<circle cx="221.5" cy="35.5" r="1.5" fill="white"/>
<circle cx="551.5" cy="35.5" r="1.5" fill="white"/>
<circle cx="287.5" cy="35.5" r="1.5" fill="white"/>
<circle cx="617.5" cy="35.5" r="1.5" fill="white"/>
<circle cx="45.5" cy="35.5" r="1.5" fill="white"/>
<circle cx="375.5" cy="35.5" r="1.5" fill="white"/>
<circle cx="111.5" cy="35.5" r="1.5" fill="white"/>
<circle cx="441.5" cy="35.5" r="1.5" fill="white"/>
<circle cx="177.5" cy="35.5" r="1.5" fill="white"/>
<circle cx="507.5" cy="35.5" r="1.5" fill="white"/>
<circle cx="243.5" cy="35.5" r="1.5" fill="white"/>
<circle cx="573.5" cy="35.5" r="1.5" fill="white"/>
<circle cx="309.5" cy="35.5" r="1.5" fill="white"/>
<circle cx="639.5" cy="35.5" r="1.5" fill="white"/>
<g opacity="0.5">
<circle cx="1.5" cy="18.5" r="1.5" fill="white"/>
<circle cx="331.5" cy="18.5" r="1.5" fill="white"/>
<circle cx="67.5" cy="18.5" r="1.5" fill="white"/>
<circle cx="397.5" cy="18.5" r="1.5" fill="white"/>
<circle cx="133.5" cy="18.5" r="1.5" fill="white"/>
<circle cx="463.5" cy="18.5" r="1.5" fill="white"/>
<circle cx="199.5" cy="18.5" r="1.5" fill="white"/>
<circle cx="529.5" cy="18.5" r="1.5" fill="white"/>
<circle cx="265.5" cy="18.5" r="1.5" fill="white"/>
<circle cx="595.5" cy="18.5" r="1.5" fill="white"/>
<circle cx="23.5" cy="18.5" r="1.5" fill="white"/>
<circle cx="353.5" cy="18.5" r="1.5" fill="white"/>
<circle cx="89.5" cy="18.5" r="1.5" fill="white"/>
<circle cx="419.5" cy="18.5" r="1.5" fill="white"/>
<circle cx="155.5" cy="18.5" r="1.5" fill="white"/>
<circle cx="485.5" cy="18.5" r="1.5" fill="white"/>
<circle cx="221.5" cy="18.5" r="1.5" fill="white"/>
<circle cx="551.5" cy="18.5" r="1.5" fill="white"/>
<circle cx="287.5" cy="18.5" r="1.5" fill="white"/>
<circle cx="617.5" cy="18.5" r="1.5" fill="white"/>
<circle cx="45.5" cy="18.5" r="1.5" fill="white"/>
<circle cx="375.5" cy="18.5" r="1.5" fill="white"/>
<circle cx="111.5" cy="18.5" r="1.5" fill="white"/>
<circle cx="441.5" cy="18.5" r="1.5" fill="white"/>
<circle cx="177.5" cy="18.5" r="1.5" fill="white"/>
<circle cx="507.5" cy="18.5" r="1.5" fill="white"/>
<circle cx="243.5" cy="18.5" r="1.5" fill="white"/>
<circle cx="573.5" cy="18.5" r="1.5" fill="white"/>
<circle cx="309.5" cy="18.5" r="1.5" fill="white"/>
<circle cx="639.5" cy="18.5" r="1.5" fill="white"/>
</g>
<g opacity="0.2">
<circle cx="1.5" cy="1.5" r="1.5" fill="white"/>
<circle cx="331.5" cy="1.5" r="1.5" fill="white"/>
<circle cx="67.5" cy="1.5" r="1.5" fill="white"/>
<circle cx="397.5" cy="1.5" r="1.5" fill="white"/>
<circle cx="133.5" cy="1.5" r="1.5" fill="white"/>
<circle cx="463.5" cy="1.5" r="1.5" fill="white"/>
<circle cx="199.5" cy="1.5" r="1.5" fill="white"/>
<circle cx="529.5" cy="1.5" r="1.5" fill="white"/>
<circle cx="265.5" cy="1.5" r="1.5" fill="white"/>
<circle cx="595.5" cy="1.5" r="1.5" fill="white"/>
<circle cx="23.5" cy="1.5" r="1.5" fill="white"/>
<circle cx="353.5" cy="1.5" r="1.5" fill="white"/>
<circle cx="89.5" cy="1.5" r="1.5" fill="white"/>
<circle cx="419.5" cy="1.5" r="1.5" fill="white"/>
<circle cx="155.5" cy="1.5" r="1.5" fill="white"/>
<circle cx="485.5" cy="1.5" r="1.5" fill="white"/>
<circle cx="221.5" cy="1.5" r="1.5" fill="white"/>
<circle cx="551.5" cy="1.5" r="1.5" fill="white"/>
<circle cx="287.5" cy="1.5" r="1.5" fill="white"/>
<circle cx="617.5" cy="1.5" r="1.5" fill="white"/>
<circle cx="45.5" cy="1.5" r="1.5" fill="white"/>
<circle cx="375.5" cy="1.5" r="1.5" fill="white"/>
<circle cx="111.5" cy="1.5" r="1.5" fill="white"/>
<circle cx="441.5" cy="1.5" r="1.5" fill="white"/>
<circle cx="177.5" cy="1.5" r="1.5" fill="white"/>
<circle cx="507.5" cy="1.5" r="1.5" fill="white"/>
<circle cx="243.5" cy="1.5" r="1.5" fill="white"/>
<circle cx="573.5" cy="1.5" r="1.5" fill="white"/>
<circle cx="309.5" cy="1.5" r="1.5" fill="white"/>
<circle cx="639.5" cy="1.5" r="1.5" fill="white"/>
</g>
</g>
</svg>
