<svg width="24" height="24" viewBox="0 0 24 24" fill="none" xmlns="http://www.w3.org/2000/svg">
<path d="M11.9969 13.3998L7.09687 18.2998C6.91354 18.4831 6.68021 18.5748 6.39687 18.5748C6.11354 18.5748 5.88021 18.4831 5.69687 18.2998C5.51354 18.1165 5.42188 17.8831 5.42188 17.5998C5.42188 17.3165 5.51354 17.0831 5.69687 16.8998L10.5969 11.9998L5.69687 7.0998C5.51354 6.91647 5.42188 6.68314 5.42188 6.3998C5.42188 6.11647 5.51354 5.88314 5.69687 5.6998C5.88021 5.51647 6.11354 5.4248 6.39687 5.4248C6.68021 5.4248 6.91354 5.51647 7.09687 5.6998L11.9969 10.5998L16.8969 5.6998C17.0802 5.51647 17.3135 5.4248 17.5969 5.4248C17.8802 5.4248 18.1135 5.51647 18.2969 5.6998C18.4802 5.88314 18.5719 6.11647 18.5719 6.3998C18.5719 6.68314 18.4802 6.91647 18.2969 7.0998L13.3969 11.9998L18.2969 16.8998C18.4802 17.0831 18.5719 17.3165 18.5719 17.5998C18.5719 17.8831 18.4802 18.1165 18.2969 18.2998C18.1135 18.4831 17.8802 18.5748 17.5969 18.5748C17.3135 18.5748 17.0802 18.4831 16.8969 18.2998L11.9969 13.3998Z" fill="#142A4C"/>
</svg>
