<svg width="21" height="20" viewBox="0 0 21 20" fill="none" xmlns="http://www.w3.org/2000/svg">
<path d="M15.2168 13.8806L11.6809 17.4164C11.5263 17.5712 11.3427 17.694 11.1406 17.7778C10.9385 17.8616 10.7218 17.9047 10.503 17.9047C10.2842 17.9047 10.0676 17.8616 9.86547 17.7778C9.66336 17.694 9.47974 17.5712 9.32511 17.4164L5.78844 13.8806C4.85612 12.9482 4.22122 11.7603 3.96401 10.4671C3.70681 9.17394 3.83885 7.83352 4.34344 6.61536C4.84804 5.39721 5.70252 4.35604 6.79884 3.62351C7.89516 2.89098 9.18408 2.5 10.5026 2.5C11.8211 2.5 13.1101 2.89098 14.2064 3.62351C15.3027 4.35604 16.1572 5.39721 16.6618 6.61536C17.1664 7.83352 17.2984 9.17394 17.0412 10.4671C16.784 11.7603 16.1491 12.9482 15.2168 13.8806Z" stroke="#9CA3AF" stroke-width="1.66667" stroke-linecap="round" stroke-linejoin="round"/>
<path d="M13 9.16602C13 9.82906 12.7366 10.4649 12.2678 10.9338C11.7989 11.4026 11.163 11.666 10.5 11.666C9.83696 11.666 9.20107 11.4026 8.73223 10.9338C8.26339 10.4649 8 9.82906 8 9.16602C8 8.50297 8.26339 7.86709 8.73223 7.39825C9.20107 6.92941 9.83696 6.66602 10.5 6.66602C11.163 6.66602 11.7989 6.92941 12.2678 7.39825C12.7366 7.86709 13 8.50297 13 9.16602Z" stroke="#9CA3AF" stroke-width="1.66667" stroke-linecap="round" stroke-linejoin="round"/>
</svg>
