<svg width="21" height="20" viewBox="0 0 21 20" fill="none" xmlns="http://www.w3.org/2000/svg">
<path d="M3 6.66602L9.575 11.0493C9.84888 11.2321 10.1708 11.3296 10.5 11.3296C10.8292 11.3296 11.1511 11.2321 11.425 11.0493L18 6.66602M4.66667 15.8327H16.3333C16.7754 15.8327 17.1993 15.6571 17.5118 15.3445C17.8244 15.032 18 14.608 18 14.166V5.83268C18 5.39065 17.8244 4.96673 17.5118 4.65417C17.1993 4.34161 16.7754 4.16602 16.3333 4.16602H4.66667C4.22464 4.16602 3.80072 4.34161 3.48816 4.65417C3.17559 4.96673 3 5.39065 3 5.83268V14.166C3 14.608 3.17559 15.032 3.48816 15.3445C3.80072 15.6571 4.22464 15.8327 4.66667 15.8327Z" stroke="#9CA3AF" stroke-width="1.66667" stroke-linecap="round" stroke-linejoin="round"/>
</svg>
