<svg width="21" height="20" viewBox="0 0 21 20" fill="none" xmlns="http://www.w3.org/2000/svg">
<path d="M3 4.16667C3 3.72464 3.17559 3.30072 3.48816 2.98816C3.80072 2.67559 4.22464 2.5 4.66667 2.5H7.4C7.57483 2.50013 7.74519 2.55525 7.88696 2.65754C8.02874 2.75984 8.13475 2.90413 8.19 3.07L9.43833 6.81417C9.50158 7.00445 9.4941 7.21116 9.41726 7.39637C9.34042 7.58158 9.19938 7.73288 9.02 7.8225L7.13917 8.76417C8.0611 10.8046 9.69538 12.4389 11.7358 13.3608L12.6775 11.48C12.7671 11.3006 12.9184 11.1596 13.1036 11.0827C13.2888 11.0059 13.4956 10.9984 13.6858 11.0617L17.43 12.31C17.596 12.3653 17.7404 12.4714 17.8427 12.6134C17.945 12.7553 18 12.9259 18 13.1008V15.8333C18 16.2754 17.8244 16.6993 17.5118 17.0118C17.1993 17.3244 16.7754 17.5 16.3333 17.5H15.5C8.59667 17.5 3 11.9033 3 5V4.16667Z" stroke="#9CA3AF" stroke-width="1.66667" stroke-linecap="round" stroke-linejoin="round"/>
</svg>
