<svg width="24" height="25" viewBox="0 0 24 25" fill="none" xmlns="http://www.w3.org/2000/svg">
<path d="M4 18.2626H20C20.55 18.2626 21 17.8126 21 17.2626C21 16.7126 20.55 16.2626 20 16.2626H4C3.45 16.2626 3 16.7126 3 17.2626C3 17.8126 3.45 18.2626 4 18.2626ZM4 13.2626H20C20.55 13.2626 21 12.8126 21 12.2626C21 11.7126 20.55 11.2626 20 11.2626H4C3.45 11.2626 3 11.7126 3 12.2626C3 12.8126 3.45 13.2626 4 13.2626ZM3 7.26263C3 7.81263 3.45 8.26263 4 8.26263H20C20.55 8.26263 21 7.81263 21 7.26263C21 6.71263 20.55 6.26263 20 6.26263H4C3.45 6.26263 3 6.71263 3 7.26263Z" fill="#142A4C"/>
</svg>
