<svg width="30" height="30" viewBox="0 0 30 30" fill="none" xmlns="http://www.w3.org/2000/svg">
<path d="M6.63124 21.509C6.12292 22.0174 6.12292 22.8604 6.63124 23.3688C7.13957 23.8771 7.98264 23.8771 8.49097 23.3688L15 16.8597L21.509 23.3688C22.0174 23.8771 22.8604 23.8771 23.3688 23.3688C23.8771 22.8604 23.8771 22.0174 23.3688 21.509L16.8597 15L23.3688 8.49097C23.8771 7.98264 23.8771 7.13957 23.3688 6.63124C22.8604 6.12292 22.0174 6.12292 21.509 6.63124L15 13.1403L8.49097 6.63124C7.98264 6.12292 7.13957 6.12292 6.63124 6.63124C6.12292 7.13957 6.12292 7.98264 6.63124 8.49097L13.1403 15L6.63124 21.509Z" fill="#142A4C"/>
</svg>
