<svg width="224" height="128" viewBox="0 0 224 128" fill="none" xmlns="http://www.w3.org/2000/svg">
<path d="M95.5692 6.96973C100.439 2.05874 106.909 -0.257254 113.287 0.0224609V0.0605469C118.764 0.445695 124.134 2.75024 128.321 6.97266L221.752 101.187C224.003 103.456 223.594 106.961 221.976 109.718C221.374 110.704 220.998 111.462 220.847 111.993C220.622 112.448 220.471 113.093 220.395 113.928C220.169 116.279 220.085 121.766 220.085 121.766C220.072 121.792 216.953 128.289 213.841 126.795C212.361 126.084 210.997 125.12 209.816 123.929L121.904 35.2793C119.487 32.8423 116.43 31.4439 113.279 31.084V31.0234C109.229 30.7365 105.083 32.1543 101.987 35.2764L14.075 123.926C12.8939 125.117 11.5295 126.081 10.0496 126.792C6.94556 128.282 3.83575 121.824 3.80646 121.763C3.80646 121.763 3.72181 116.276 3.49591 113.925C3.42061 113.09 3.26967 112.445 3.04376 111.99C2.89315 111.459 2.51629 110.701 1.91388 109.715C0.296464 106.958 -0.112221 103.453 2.13849 101.184L95.5692 6.96973ZM71.949 93.4775C94.1803 70.8887 130.606 70.8887 152.837 93.4775L158.078 98.8037C163.192 104 159.511 112.787 152.221 112.787C145.613 112.787 139.283 110.135 134.648 105.426L133.281 104.037C121.799 92.3705 102.987 92.3705 91.5047 104.037L90.1375 105.426C85.503 110.135 79.1723 112.787 72.5652 112.787C65.2749 112.787 61.594 104 66.7078 98.8037L71.949 93.4775Z" fill="white"/>
</svg>
