<svg width="77" height="62" viewBox="0 0 77 62" fill="none" xmlns="http://www.w3.org/2000/svg">
<g clip-path="url(#clip0_2009_746)">
<path d="M8.7524 36.1831C9.07227 36.631 9.39795 37.2097 9.72945 37.9193C10.0668 38.623 10.3924 39.3965 10.7065 40.2399C11.0206 41.0832 11.3026 41.9469 11.5527 42.8309C11.8086 43.7092 12.018 44.5554 12.1808 45.3697C12.3436 46.1839 12.4367 46.908 12.46 47.542C12.4658 47.8502 12.3262 48.0043 12.0412 48.0043H9.9301C9.65676 48.0043 9.51427 47.8677 9.50264 47.5943C9.47937 46.9429 9.37469 46.1519 9.18859 45.2213H4.42548C4.26264 46.1287 4.16959 46.9196 4.14632 47.5943C4.13469 47.8677 3.98639 48.0043 3.70142 48.0043H1.63391C1.52923 48.0043 1.44199 47.9753 1.3722 47.9171C1.30242 47.8531 1.27043 47.7455 1.27624 47.5943C1.30532 46.9487 1.39838 46.2159 1.5554 45.3958C1.71824 44.5699 1.92761 43.715 2.1835 42.8309C2.4394 41.9469 2.72437 41.0832 3.03842 40.2399C3.35247 39.3907 3.67815 38.6143 4.01547 37.9105C4.35278 37.2068 4.68137 36.631 5.00124 36.1831C5.1699 35.9447 5.34728 35.7702 5.53338 35.6597C5.7253 35.5492 5.96084 35.4939 6.24 35.4939H7.4962C7.78117 35.4939 8.01962 35.5492 8.21154 35.6597C8.40346 35.7702 8.58375 35.9447 8.7524 36.1831ZM6.78086 38.2508C6.39702 38.8615 6.04517 39.5914 5.7253 40.4405C5.40543 41.2897 5.12919 42.1621 4.89656 43.0578H8.68262C8.43835 42.1621 8.15629 41.2897 7.83642 40.4405C7.51656 39.5914 7.18215 38.8615 6.8332 38.2508H6.78086Z" fill="#2445CE"/>
<path d="M16.6647 48.0043C16.0657 48.0043 15.6092 47.9287 15.2951 47.7775C14.9869 47.6263 14.7775 47.3791 14.667 47.036C14.5623 46.6928 14.51 46.2363 14.51 45.6663V36.8898C14.51 36.7211 14.5391 36.5932 14.5972 36.5059C14.859 36.1221 15.2253 35.7179 15.6964 35.2933C15.7837 35.2235 15.8593 35.1886 15.9232 35.1886C15.993 35.1886 16.0657 35.2235 16.1413 35.2933C16.3972 35.5143 16.6124 35.7266 16.7869 35.9301C16.9614 36.1279 17.1126 36.3198 17.2405 36.5059C17.2987 36.599 17.3277 36.727 17.3277 36.8898V44.6281C17.3277 45.0178 17.3975 45.297 17.5371 45.4656C17.6767 45.6343 17.9384 45.7186 18.3222 45.7186L21.0004 45.7099C21.14 45.7099 21.2447 45.7332 21.3144 45.7797C21.4657 45.8844 21.6227 46.0094 21.7855 46.1548C21.9484 46.3002 22.1199 46.4747 22.3002 46.6783C22.3584 46.7539 22.3875 46.815 22.3875 46.8615C22.3875 46.9138 22.3584 46.972 22.3002 47.036C22.1199 47.2395 21.9484 47.414 21.7855 47.5594C21.6227 47.7048 21.4657 47.8299 21.3144 47.9346C21.233 47.9811 21.1283 48.0043 21.0004 48.0043H16.6647Z" fill="#2445CE"/>
<path d="M25.685 48.0043C25.086 48.0043 24.6294 47.9287 24.3154 47.7775C24.0071 47.6263 23.7978 47.3791 23.6873 47.036C23.5826 46.6928 23.5303 46.2363 23.5303 45.6663V36.8898C23.5303 36.7211 23.5593 36.5932 23.6175 36.5059C23.8792 36.1221 24.2456 35.7179 24.7167 35.2933C24.8039 35.2235 24.8795 35.1886 24.9435 35.1886C25.0133 35.1886 25.086 35.2235 25.1616 35.2933C25.4175 35.5143 25.6326 35.7266 25.8071 35.9301C25.9816 36.1279 26.1328 36.3198 26.2608 36.5059C26.3189 36.599 26.348 36.727 26.348 36.8898V44.6281C26.348 45.0178 26.4178 45.297 26.5574 45.4656C26.6969 45.6343 26.9586 45.7186 27.3425 45.7186L30.0206 45.7099C30.1602 45.7099 30.2649 45.7332 30.3347 45.7797C30.4859 45.8844 30.6429 46.0094 30.8058 46.1548C30.9686 46.3002 31.1402 46.4747 31.3205 46.6783C31.3786 46.7539 31.4077 46.815 31.4077 46.8615C31.4077 46.9138 31.3786 46.972 31.3205 47.036C31.1402 47.2395 30.9686 47.414 30.8058 47.5594C30.6429 47.7048 30.4859 47.8299 30.3347 47.9346C30.2533 47.9811 30.1486 48.0043 30.0206 48.0043H25.685Z" fill="#2445CE"/>
<path d="M34.3039 47.3151C33.8387 46.5823 33.3822 45.7622 32.9343 44.8549C32.4923 43.9418 32.0911 43.0054 31.7305 42.0458C31.3699 41.0803 31.082 40.1526 30.8668 39.2628C30.6516 38.3671 30.5441 37.5674 30.5441 36.8636C30.5441 36.7124 30.576 36.5932 30.64 36.5059C30.7738 36.3198 30.9366 36.1279 31.1285 35.9301C31.3263 35.7266 31.5589 35.5143 31.8264 35.2933C31.9137 35.2235 31.9951 35.1886 32.0707 35.1886C32.1463 35.1886 32.2219 35.2235 32.2975 35.2933C32.5709 35.5143 32.8035 35.7266 32.9954 35.9301C33.1873 36.1279 33.3502 36.3198 33.4839 36.5059C33.5479 36.5932 33.5799 36.7211 33.5799 36.8898V36.8549C33.5799 37.3493 33.6468 37.9454 33.7805 38.6434C33.9201 39.3355 34.1091 40.0654 34.3476 40.8331C34.5918 41.595 34.8681 42.3366 35.1763 43.0578C35.4904 43.7731 35.8248 44.3984 36.1795 44.9335H36.2319C36.6215 44.3984 36.9734 43.776 37.2874 43.0665C37.6073 42.3511 37.8806 41.6125 38.1075 40.8506C38.3401 40.0887 38.5175 39.3616 38.6396 38.6695C38.7675 37.9716 38.8315 37.3696 38.8315 36.8636V36.8898C38.8315 36.7211 38.8606 36.5932 38.9188 36.5059C39.1979 36.1221 39.5818 35.7179 40.0703 35.2933C40.1633 35.2235 40.2447 35.1886 40.3145 35.1886C40.3785 35.1886 40.4541 35.2235 40.5414 35.2933C40.8031 35.5143 41.027 35.7266 41.2131 35.9301C41.3992 36.1279 41.5591 36.3198 41.6929 36.5059C41.751 36.599 41.7801 36.724 41.7801 36.8811C41.7801 37.4103 41.7045 38.0239 41.5533 38.7219C41.4079 39.414 41.2073 40.1468 40.9514 40.9204C40.6955 41.6939 40.4047 42.4674 40.079 43.241C39.7533 44.0145 39.4102 44.7532 39.0496 45.4569C38.689 46.1548 38.3285 46.7742 37.9679 47.3151C37.6655 47.7746 37.2525 48.0043 36.7291 48.0043H35.5253C35.0018 48.0043 34.5947 47.7746 34.3039 47.3151ZM30.5441 36.8549V36.8636V36.8898V36.8549ZM41.7801 36.8636V36.8898V36.8811V36.8636Z" fill="#2445CE"/>
<path d="M49.8233 36.1831C50.1432 36.631 50.4689 37.2097 50.8004 37.9193C51.1377 38.623 51.4633 39.3965 51.7774 40.2399C52.0914 41.0832 52.3735 41.9469 52.6236 42.8309C52.8795 43.7092 53.0889 44.5554 53.2517 45.3697C53.4145 46.1839 53.5076 46.908 53.5309 47.542C53.5367 47.8502 53.3971 48.0043 53.1121 48.0043H51.001C50.7277 48.0043 50.5852 47.8677 50.5735 47.5943C50.5503 46.9429 50.4456 46.1519 50.2595 45.2213H45.4964C45.3335 46.1287 45.2405 46.9196 45.2172 47.5943C45.2056 47.8677 45.0573 48.0043 44.7723 48.0043H42.7048C42.6001 48.0043 42.5129 47.9753 42.4431 47.9171C42.3733 47.8531 42.3413 47.7455 42.3471 47.5943C42.3762 46.9487 42.4693 46.2159 42.6263 45.3958C42.7891 44.5699 42.9985 43.715 43.2544 42.8309C43.5103 41.9469 43.7953 41.0832 44.1093 40.2399C44.4234 39.3907 44.7491 38.6143 45.0864 37.9105C45.4237 37.2068 45.7523 36.631 46.0721 36.1831C46.2408 35.9447 46.4182 35.7702 46.6043 35.6597C46.7962 35.5492 47.0317 35.4939 47.3109 35.4939H48.5671C48.8521 35.4939 49.0905 35.5492 49.2824 35.6597C49.4744 35.7702 49.6546 35.9447 49.8233 36.1831ZM47.8518 38.2508C47.4679 38.8615 47.1161 39.5914 46.7962 40.4405C46.4763 41.2897 46.2001 42.1621 45.9675 43.0578H49.7535C49.5093 42.1621 49.2272 41.2897 48.9073 40.4405C48.5875 39.5914 48.253 38.8615 47.9041 38.2508H47.8518Z" fill="#2445CE"/>
<path d="M58.3986 47.542C58.3986 47.7164 58.3608 47.8386 58.2852 47.9084C58.2154 47.9724 58.0933 48.0043 57.9188 48.0043H56.0607C55.8862 48.0043 55.7612 47.9724 55.6856 47.9084C55.6158 47.8386 55.5809 47.7164 55.5809 47.542V37.832C55.5809 37.2504 55.6332 36.7909 55.7379 36.4536C55.8484 36.1104 56.0578 35.8662 56.366 35.7208C56.6801 35.5696 57.1366 35.4939 57.7356 35.4939H60.0474C63.0832 35.4939 64.6011 36.6601 64.6011 38.9923C64.6011 39.7019 64.4819 40.2835 64.2435 40.7371C64.005 41.1908 63.7084 41.5456 63.3537 41.8015C62.9989 42.0516 62.65 42.2406 62.3068 42.3686V42.4122C62.6965 42.6681 63.0658 43.0054 63.4147 43.4242C63.7695 43.8371 64.0894 44.2879 64.3743 44.7764C64.6593 45.2592 64.9007 45.739 65.0984 46.2159C65.2961 46.687 65.4328 47.1087 65.5084 47.4809C65.5433 47.6554 65.5433 47.7862 65.5084 47.8735C65.4793 47.9607 65.3805 48.0043 65.2118 48.0043H63.1966C63.0454 48.0043 62.9117 47.9724 62.7954 47.9084C62.6849 47.8444 62.5831 47.6961 62.49 47.4634C62.048 46.3526 61.5391 45.4482 60.9634 44.7502C60.3876 44.0465 59.8322 43.4823 59.2972 43.0578C58.954 42.7844 58.7825 42.5896 58.7825 42.4732C58.7825 42.3802 58.8377 42.2522 58.9482 42.0894C59.018 41.9905 59.1198 41.8713 59.2536 41.7317C59.3873 41.5921 59.5036 41.4874 59.6025 41.4176C59.7014 41.3478 59.7799 41.3042 59.838 41.2868C59.902 41.2693 59.998 41.2606 60.1259 41.2606C60.5563 41.2606 60.914 41.1123 61.1989 40.8157C61.4897 40.519 61.6351 40.0508 61.6351 39.4111C61.6351 38.8062 61.481 38.3642 61.1728 38.085C60.8703 37.8 60.4516 37.6575 59.9166 37.6575H59.3931C59.0093 37.6575 58.7476 37.739 58.608 37.9018C58.4684 38.0647 58.3986 38.3438 58.3986 38.7393V47.542Z" fill="#2445CE"/>
<path d="M72.3826 47.542C72.3826 47.7164 72.3448 47.8386 72.2692 47.9084C72.1994 47.9724 72.0773 48.0043 71.9028 48.0043H70.0447C69.8702 48.0043 69.7452 47.9724 69.6696 47.9084C69.5998 47.8386 69.5649 47.7164 69.5649 47.542V37.7884H66.9653C66.8257 37.7884 66.721 37.7651 66.6512 37.7186C66.5 37.6139 66.343 37.4889 66.1801 37.3435C66.0231 37.1981 65.8515 37.0236 65.6654 36.82C65.6073 36.7444 65.5782 36.6833 65.5782 36.6368C65.5782 36.5845 65.6073 36.5263 65.6654 36.4623C65.8515 36.2588 66.0231 36.0843 66.1801 35.9389C66.343 35.7935 66.5 35.6684 66.6512 35.5637C66.7326 35.5172 66.8373 35.4939 66.9653 35.4939H74.991C75.1306 35.4939 75.2353 35.5172 75.3051 35.5637C75.4563 35.6684 75.6133 35.7935 75.7761 35.9389C75.939 36.0843 76.1105 36.2588 76.2908 36.4623C76.349 36.5379 76.3781 36.599 76.3781 36.6455C76.3781 36.6979 76.349 36.756 76.2908 36.82C76.1105 37.0236 75.939 37.1981 75.7761 37.3435C75.6133 37.4889 75.4563 37.6139 75.3051 37.7186C75.2236 37.7651 75.119 37.7884 74.991 37.7884H72.3826V47.542Z" fill="#2445CE"/>
<path d="M35.5275 10.4069C36.4378 9.49656 37.647 9.06709 38.8392 9.11893V9.12556L39.031 9.14312C39.9883 9.25148 40.9168 9.67273 41.6509 10.4069L59.3789 28.1356C59.6551 28.4118 59.6322 28.856 59.3776 29.1522C59.2845 29.2603 59.211 29.3607 59.1566 29.4527C59.044 29.6355 58.9733 29.7761 58.9452 29.8745C58.903 29.9589 58.8751 30.0784 58.861 30.233C58.8188 30.6689 58.8027 31.686 58.8027 31.686C58.8024 31.6914 58.7916 31.8866 58.7865 32.1337C58.7781 32.5346 58.4494 32.8887 58.0635 32.7795C57.6214 32.6543 57.2143 32.4176 56.8836 32.0869L40.4515 15.6539C39.9997 15.2021 39.4282 14.9429 38.8392 14.8762V14.8656L38.697 14.8593C37.9857 14.8461 37.2701 15.111 36.7273 15.6539L20.2951 32.0869C19.9644 32.4176 19.557 32.6543 19.1149 32.7795C18.7291 32.8886 18.4003 32.5346 18.3919 32.1337C18.3868 31.8866 18.376 31.6913 18.3757 31.686C18.3757 31.686 18.3599 30.6689 18.3177 30.233C18.3036 30.0784 18.2754 29.9589 18.2332 29.8745C18.2051 29.7761 18.1347 29.6354 18.0222 29.4527C17.9677 29.3607 17.8939 29.2603 17.8008 29.1522C17.5462 28.856 17.5233 28.4118 17.7995 28.1356L35.5275 10.4069Z" fill="#2445CE"/>
<path d="M47.1877 27.4077L45.7677 25.9768C41.8563 22.0354 35.4828 22.0354 31.5715 25.9768L30.1515 27.4077C29.1912 28.3754 29.8766 30.0212 31.2399 30.0212C32.466 30.0212 33.6414 29.5317 34.5051 28.6614L34.7681 28.3964C36.918 26.2299 40.4212 26.2299 42.5711 28.3964L42.8341 28.6614C43.6978 29.5317 44.8731 30.0212 46.0993 30.0212C47.4625 30.0212 48.1479 28.3754 47.1877 27.4077Z" fill="#2445CE"/>
</g>
<defs>
<clipPath id="clip0_2009_746">
<rect width="76" height="61.4141" fill="white" transform="translate(0.5 0.292938)"/>
</clipPath>
</defs>
</svg>
