<svg width="569" height="324" viewBox="0 0 569 324" fill="none" xmlns="http://www.w3.org/2000/svg">
<path opacity="0.5" d="M567.222 262.982C568.513 266.558 568.301 270.613 567.071 274.492L566.836 274.418C566.258 276.24 565.453 278.024 564.471 279.699C564.172 280.188 563.894 280.656 563.639 281.103L563.855 281.228L563.856 281.229C563.229 282.323 562.734 283.285 562.369 284.114L562.367 284.113L562.138 284.013C561.888 284.58 561.697 285.091 561.567 285.544C561.391 285.902 561.235 286.302 561.096 286.741L561.334 286.816C561.108 287.529 560.931 288.357 560.798 289.302H560.795L560.548 289.268C560.491 289.672 560.442 290.097 560.401 290.543C560.272 291.893 560.161 293.644 560.066 295.545L560.315 295.557H560.316C560.152 298.859 560.037 302.627 559.964 305.561H559.963L559.713 305.554C559.676 307.009 559.65 308.259 559.633 309.146C559.624 309.588 559.618 309.94 559.614 310.182C559.612 310.302 559.61 310.396 559.609 310.459C559.609 310.473 559.609 310.485 559.608 310.496C559.447 310.826 558.437 312.864 556.867 315.247L557.073 315.384C555.144 318.313 552.378 321.76 549.311 323.23L549.204 323.008C547.526 323.813 545.782 323.997 544.042 323.162L543.337 322.814C542.636 322.459 541.946 322.081 541.269 321.681L541.142 321.896C539.332 320.827 537.608 319.601 535.99 318.226L536.152 318.036C535.357 317.36 534.587 316.648 533.846 315.9L530.731 312.76L530.554 312.936L524.326 306.654L524.504 306.479L518.275 300.198L518.097 300.374L511.869 294.093L512.047 293.918L505.818 287.638L505.641 287.812L499.412 281.531L499.59 281.356L493.361 275.076L493.184 275.251L486.956 268.971L487.133 268.795L480.905 262.515L480.727 262.69L474.499 256.409L474.677 256.234L468.448 249.953L468.271 250.129L462.042 243.848L462.22 243.673L455.991 237.393L455.813 237.567L449.585 231.287L449.763 231.111L443.534 224.831L443.356 225.007L437.129 218.726L437.306 218.551L431.078 212.27L430.9 212.445L424.672 206.164L424.85 205.989L418.621 199.709L418.443 199.884L412.215 193.604L412.393 193.428L406.164 187.147L405.986 187.322L399.758 181.042L399.936 180.867L393.707 174.586L393.53 174.762L387.302 168.48L387.479 168.306L381.251 162.025L381.073 162.2L374.845 155.919L375.022 155.744L368.794 149.464L368.616 149.639L362.388 143.358L362.565 143.184L356.337 136.902L356.159 137.077L349.932 130.797L350.108 130.622L343.881 124.341L343.703 124.517L337.475 118.235L337.652 118.061L331.424 111.78L331.246 111.955L325.018 105.675L325.195 105.499L318.967 99.2188L318.789 99.3936L312.561 93.1133L312.738 92.9385L309.624 89.7979L309.058 89.2383C307.724 87.9489 306.32 86.7785 304.856 85.7275L304.711 85.9307L304.709 85.9316C301.258 83.4533 297.481 81.6424 293.553 80.5L293.554 80.499L293.624 80.2598C291.679 79.694 289.697 79.292 287.699 79.0518V78.8916L287.467 78.875L286.47 78.8184C285.472 78.7747 284.472 78.7709 283.474 78.8076L283.483 79.0576V79.0586C280.845 79.1556 278.216 79.5367 275.644 80.1992V80.1973L275.582 79.9551C273.023 80.6141 270.519 81.5509 268.118 82.7656L268.231 82.9883L268.232 82.9902C265.907 84.167 263.678 85.6057 261.591 87.3076L261.59 87.3066L261.432 87.1123C260.666 87.7364 259.919 88.3956 259.193 89.0898L258.475 89.7959L255.36 92.9365L255.538 93.1123L249.31 99.3936L249.132 99.2168L242.903 105.498L243.081 105.674L236.853 111.954L236.675 111.778L230.447 118.059L230.624 118.235L224.396 124.516L224.219 124.34L217.99 130.62L218.168 130.796L211.939 137.077L211.762 136.901L205.533 143.182L205.711 143.357L199.482 149.638L199.305 149.462L193.077 155.743L193.254 155.919L187.026 162.199L186.849 162.023L180.62 168.304L180.798 168.479L174.569 174.761L174.392 174.585L168.163 180.865L168.341 181.041L162.112 187.321L161.935 187.146L155.707 193.427L155.884 193.603L149.656 199.883L149.479 199.707L143.25 205.987L143.427 206.163L137.199 212.444L137.021 212.269L130.793 218.549L130.971 218.725L124.742 225.006L124.564 224.829L118.337 231.11L118.514 231.286L112.286 237.566L112.108 237.391L105.88 243.671L106.057 243.847L99.8291 250.128L99.6514 249.952L93.4229 256.232L93.6006 256.408L87.3721 262.689L87.1943 262.513L80.9668 268.794L81.1436 268.97L74.915 275.25L74.7383 275.074L68.5098 281.354L68.6865 281.53L62.459 287.812L62.2812 287.636L56.0527 293.916L56.2305 294.092L50.002 300.373L49.8242 300.196L43.5967 306.478L43.7734 306.653L37.5449 312.934L37.3682 312.758L34.2539 315.898C33.5126 316.646 32.7428 317.358 31.9473 318.034L32.1074 318.224C30.4892 319.599 28.7653 320.825 26.9561 321.894L26.8301 321.679C26.1522 322.079 25.4624 322.457 24.7617 322.812L24.0566 323.16C22.4253 323.943 20.7908 323.83 19.21 323.149L18.8945 323.006L18.7871 323.229C15.7197 321.758 12.9536 318.31 11.0244 315.381L11.2324 315.245C9.66384 312.864 8.6522 310.827 8.49023 310.495C8.49006 310.484 8.48949 310.471 8.48926 310.457C8.48823 310.394 8.48743 310.301 8.48535 310.181C8.48119 309.939 8.4744 309.587 8.46582 309.144C8.44866 308.257 8.42215 307.008 8.38574 305.553L8.13477 305.559C8.06137 302.625 7.9466 298.858 7.78223 295.556H7.78418L8.0332 295.543C7.93857 293.642 7.82791 291.892 7.69824 290.542C7.65797 290.096 7.60893 289.671 7.55176 289.266L7.30371 289.301H7.30078C7.16734 288.356 6.9905 287.527 6.76465 286.814H6.76562L7.00391 286.739C6.8645 286.3 6.7065 285.9 6.53027 285.542C6.40032 285.089 6.21024 284.578 5.96094 284.011L5.73145 284.111L5.72852 284.112C5.36405 283.283 4.86882 282.321 4.24121 281.227L4.24316 281.226L4.46094 281.102C4.20575 280.657 3.92793 280.19 3.62988 279.702H3.63086C2.64715 278.025 1.84076 276.239 1.2627 274.416L1.02637 274.49C-0.203277 270.611 -0.414659 266.556 0.876953 262.98L1.11133 263.065C1.70395 261.425 2.61877 259.888 3.9043 258.519L4.16602 258.247L7.30176 255.085L7.12402 254.909L7.12305 254.908L13.3945 248.585L13.5723 248.762L19.8438 242.438L19.666 242.262L19.665 242.261L25.9355 235.938L25.9365 235.938L26.1143 236.114L32.3857 229.791L32.208 229.614L32.207 229.613L38.4775 223.29L38.4785 223.291L38.6562 223.467L44.9268 217.144L44.75 216.968L44.749 216.967L51.0205 210.644L51.1982 210.82L57.4688 204.496L57.292 204.32L57.291 204.319L63.5615 197.996L63.5625 197.997L63.7402 198.173L70.0107 191.85L69.833 191.674L69.832 191.673L76.1035 185.349L76.1045 185.35L76.2822 185.525L82.5527 179.202L82.375 179.026L82.374 179.025L88.6455 172.702L88.6465 172.703L88.8242 172.879L95.0947 166.556L94.917 166.379L101.188 160.055L101.188 160.056L101.365 160.231L107.637 153.908L107.459 153.732L107.458 153.731L113.729 147.407L113.907 147.585L120.179 141.261L120.001 141.085L120 141.084L126.271 134.762L126.449 134.938L132.721 128.614L132.543 128.438L138.813 122.114L138.991 122.29L145.262 115.967L145.085 115.791L145.084 115.79L151.354 109.467L151.355 109.468L151.533 109.644L157.804 103.32L157.626 103.143L163.897 96.8203L164.075 96.9961L170.346 90.6729L170.168 90.4971L176.439 84.1729L176.617 84.3496L182.888 78.0254L182.71 77.8496L188.98 71.5254L188.981 71.5264L189.159 71.7021L195.43 65.3789L195.252 65.2021L201.522 58.8779L201.523 58.8789L201.7 59.0547L207.972 52.7314L207.794 52.5557L214.064 46.2314L214.065 46.2324L214.242 46.4082L220.514 40.084L220.336 39.9082L226.606 33.585L226.784 33.7607L233.056 27.4375L232.878 27.2617L232.877 27.2607L239.148 20.9375L239.326 21.1143L242.462 17.9521C243.444 16.9623 244.451 16.0142 245.481 15.1074L245.315 14.9199C247.428 13.0612 249.639 11.3766 251.929 9.86523L252.066 10.0732C254.396 8.53564 256.809 7.17852 259.285 6.00195L259.178 5.77637C261.702 4.57679 264.292 3.56418 266.928 2.73828L267.002 2.97656C269.651 2.1465 272.345 1.50571 275.064 1.05469L275.024 0.808594C277.768 0.353585 280.537 0.0912819 283.31 0.0205078L283.316 0.269531C284.619 0.236292 285.922 0.246909 287.225 0.298828V0.382812L287.457 0.399414C289.24 0.524962 291.02 0.729915 292.788 1.01562L292.826 0.770508C296.359 1.34125 299.851 2.23113 303.258 3.43848L303.176 3.67188C306.521 4.85742 309.782 6.35145 312.916 8.15332L313.04 7.93652C316.113 9.70311 319.065 11.7646 321.854 14.1211L321.693 14.3125C322.709 15.1706 323.704 16.0672 324.675 17.0039L325.637 17.9541L328.772 21.1152L328.95 20.9395V20.9385L335.221 27.2617V27.2627L335.044 27.4395L341.314 33.7627L341.492 33.5869V33.5859L347.763 39.9092V39.9102L347.586 40.0859L353.856 46.4102L354.033 46.2334L360.305 52.5566V52.5576L360.127 52.7334L366.398 59.0566L366.575 58.8809L372.846 65.2041H372.847L372.669 65.3799L378.94 71.7041L379.117 71.5283V71.5273L385.389 77.8506V77.8516L385.211 78.0273L391.482 84.3506L391.659 84.1748V84.1738L397.93 90.498H397.931L397.753 90.6748L404.023 96.998L404.201 96.8223V96.8213L410.472 103.146H410.473L410.295 103.321L416.565 109.646L416.742 109.469L423.014 115.792V115.793L422.837 115.969L429.107 122.292L429.285 122.116V122.115L435.556 128.438V128.439L435.379 128.616L441.649 134.939L441.827 134.764V134.763L448.098 141.086V141.087L447.92 141.263L454.191 147.586L454.368 147.41L460.639 153.733H460.64L460.462 153.91L466.733 160.233L466.91 160.058L473.182 166.38V166.381L473.004 166.557L479.275 172.881L479.452 172.704V172.703L485.724 179.027V179.028L485.546 179.204L491.817 185.527L491.994 185.352V185.351L498.265 191.675H498.266L498.088 191.852L504.358 198.175L504.536 197.999V197.998L510.807 204.322H510.808L510.63 204.498L516.9 210.821L517.078 210.646V210.645L523.349 216.969V216.97L523.172 217.146L529.442 223.469L529.62 223.293V223.292L535.891 229.615V229.616L535.714 229.792L541.984 236.116L542.161 235.939L548.433 242.263V242.264L548.255 242.439L554.526 248.763L554.703 248.587L560.974 254.91H560.975L560.797 255.087L563.933 258.248C565.357 259.684 566.355 261.317 566.987 263.067L567.222 262.982ZM391.681 241.812L398.366 248.604V248.604L398.188 248.78L401.53 252.177C402.515 253.177 403.37 254.229 404.101 255.319L404.308 255.181C405.902 257.559 406.914 260.121 407.409 262.725L407.168 262.771C407.68 265.466 407.627 268.207 407.077 270.835L407.318 270.886C406.756 273.569 405.682 276.134 404.163 278.417L403.958 278.281C402.471 280.517 400.554 282.477 398.274 284.002L398.41 284.206C396.207 285.68 393.672 286.755 390.857 287.287L390.812 287.043C389.522 287.287 388.172 287.416 386.769 287.416C385.384 287.416 384.004 287.37 382.631 287.279L382.614 287.527C379.835 287.343 377.085 286.977 374.378 286.433L374.427 286.188C371.714 285.643 369.045 284.919 366.438 284.024L366.357 284.26C363.735 283.36 361.175 282.287 358.693 281.049L358.806 280.827C356.34 279.597 353.952 278.203 351.66 276.651L351.52 276.857C349.233 275.31 347.042 273.606 344.962 271.755L345.128 271.569C344.1 270.654 343.099 269.703 342.128 268.716L341.256 267.83L341.077 268.006L339.334 266.234H339.335L339.513 266.06L338.642 265.174L337.887 264.418C337.128 263.668 336.358 262.938 335.576 262.228L335.408 262.412L335.406 262.413C333.292 260.492 331.096 258.713 328.827 257.078H328.828L328.974 256.875C326.655 255.204 324.263 253.681 321.81 252.308L321.688 252.525L321.687 252.526C319.207 251.138 316.666 249.902 314.075 248.818L314.076 248.817L314.172 248.587C311.546 247.488 308.871 246.545 306.16 245.759L306.09 245.999H306.089C303.369 245.21 300.613 244.577 297.836 244.103L297.878 243.857C295.081 243.38 292.262 243.061 289.436 242.901L289.422 243.151H289.421C286.601 242.992 283.773 242.992 280.953 243.151L280.939 242.901C278.113 243.061 275.294 243.38 272.497 243.857L272.538 244.103C269.761 244.577 267.005 245.21 264.285 245.999L264.215 245.759C261.504 246.545 258.829 247.488 256.203 248.587L256.299 248.817V248.818C253.708 249.902 251.167 251.138 248.688 252.526V252.525L248.565 252.308C246.112 253.681 243.72 255.204 241.401 256.875L241.547 257.078C239.278 258.713 237.082 260.492 234.968 262.413L234.967 262.412L234.799 262.228C234.017 262.938 233.247 263.668 232.488 264.418L231.733 265.174L230.862 266.06L231.04 266.234L229.297 268.006L229.119 267.83L228.247 268.716C227.276 269.703 226.275 270.654 225.247 271.569L225.412 271.755C223.332 273.606 221.141 275.31 218.854 276.857L218.715 276.651C216.423 278.203 214.035 279.597 211.569 280.827L211.681 281.049C209.199 282.287 206.639 283.36 204.017 284.26L203.937 284.024C201.33 284.919 198.661 285.643 195.948 286.188L195.996 286.433C193.289 286.977 190.539 287.344 187.76 287.527L187.744 287.279C186.371 287.37 184.991 287.416 183.606 287.416C182.203 287.416 180.853 287.287 179.562 287.043L179.517 287.287C176.703 286.755 174.167 285.68 171.964 284.206L172.101 284.002C169.821 282.477 167.904 280.517 166.417 278.281L166.211 278.417C164.693 276.134 163.618 273.569 163.056 270.886L163.298 270.835C162.748 268.207 162.695 265.466 163.207 262.771L162.965 262.725C163.46 260.121 164.472 257.559 166.066 255.181L166.274 255.319C166.914 254.365 167.648 253.44 168.481 252.554L168.845 252.177L172.187 248.78L172.009 248.604L172.008 248.604L178.692 241.812L178.693 241.812L178.871 241.988L182.214 238.592C183.251 237.538 184.3 236.503 185.361 235.488L185.189 235.309C187.33 233.261 189.517 231.29 191.748 229.399L191.91 229.59C194.164 227.68 196.463 225.849 198.803 224.1L198.653 223.9C201.024 222.128 203.437 220.438 205.888 218.829L206.024 219.037C208.493 217.417 211 215.88 213.542 214.427L213.419 214.212C215.985 212.745 218.586 211.364 221.218 210.067L221.327 210.289C223.971 208.986 226.647 207.77 229.351 206.639L229.254 206.41C231.977 205.271 234.728 204.219 237.503 203.254L237.585 203.487C240.367 202.519 243.173 201.638 245.998 200.845L245.931 200.606C248.77 199.809 251.629 199.101 254.503 198.48L254.556 198.723C257.432 198.102 260.323 197.569 263.226 197.125L263.188 196.88C266.1 196.434 269.024 196.079 271.955 195.812L271.978 196.058C274.906 195.79 277.842 195.613 280.779 195.523L280.771 195.276C283.714 195.187 286.66 195.187 289.603 195.276L289.596 195.523C292.533 195.613 295.469 195.79 298.397 196.058L298.419 195.812C301.349 196.079 304.273 196.434 307.186 196.88L307.149 197.125C310.052 197.569 312.943 198.102 315.819 198.723L315.871 198.48C318.745 199.101 321.604 199.809 324.443 200.606L324.377 200.845C327.202 201.638 330.008 202.519 332.79 203.487L332.871 203.254C335.646 204.219 338.397 205.271 341.12 206.41L341.024 206.639C343.728 207.77 346.404 208.986 349.048 210.289L349.156 210.067C351.788 211.364 354.389 212.745 356.955 214.212L356.832 214.427C359.374 215.88 361.882 217.417 364.351 219.037L364.486 218.829C366.937 220.438 369.35 222.128 371.721 223.9L371.572 224.1C373.912 225.849 376.211 227.68 378.465 229.59L378.626 229.399C380.858 231.29 383.044 233.261 385.185 235.309L385.014 235.488C385.809 236.25 386.599 237.022 387.381 237.805L388.161 238.592L391.504 241.988L391.681 241.812ZM287.462 79.1621L287.453 79.2354H287.449V79.1621H287.462ZM287.475 0.0810547V0.126953H287.472L287.474 0.0810547H287.475Z" stroke="#64748B" stroke-width="0.5" stroke-dasharray="8.81 8.81"/>
</svg>
